<?xml version="1.0" encoding="utf-8"?>
<!-- Generator: Adobe Illustrator 21.0.0, SVG Export Plug-In . SVG Version: 6.00 Build 0)  -->
<svg version="1.1" id="Layer_1" xmlns="http://www.w3.org/2000/svg" xmlns:xlink="http://www.w3.org/1999/xlink" x="0px" y="0px"
	 viewBox="0 0 272 64" style="enable-background:new 0 0 272 64;" xml:space="preserve">
<style type="text/css">
	.st0{fill:#003863;}
</style>
<g>
	<path class="st0" d="M3.3,0h120l12.9,12.9v0.4v44h129.1V14.6l-7.9-7.9H139.5L132.8,0h126h1.4l1,1l9.9,9.9l1,1v1.4v47.4V64h-3.3
		H13.2h-1.4l-1-1L1,53.1l-1-1v-1.4V3.4V0H3.3L3.3,0z M161.5,35l1.7,1.3c-0.8,1.5-1.8,2.6-3.2,3.4c-1.3,0.8-2.9,1.2-4.6,1.2
		c-2.5,0-4.6-0.8-6.3-2.5c-1.7-1.7-2.5-3.8-2.5-6.4c0-2.6,0.8-4.7,2.5-6.4c1.7-1.7,3.8-2.5,6.3-2.5c1.6,0,3,0.3,4.3,1
		c1.3,0.7,2.3,1.7,3.1,2.9l-1.8,1.3c-0.5-1-1.3-1.8-2.3-2.4c-1-0.6-2.1-0.9-3.4-0.9c-1.9,0-3.5,0.7-4.7,2c-1.3,1.3-1.9,3-1.9,5
		c0,2,0.6,3.7,1.9,5c1.3,1.3,2.8,2,4.7,2c1.3,0,2.5-0.3,3.5-1C159.9,37.3,160.8,36.3,161.5,35L161.5,35z M175.1,40.5v-8.5l-7.6-8.5
		h2.6l6.1,6.7l6-6.7h2.7l-7.7,8.5v8.5H175.1L175.1,40.5z M192.6,30.2h8.1c0.9,0,1.6-0.2,2-0.6c0.5-0.4,0.7-1,0.7-1.8
		c0-0.8-0.2-1.4-0.7-1.8c-0.5-0.4-1.1-0.6-2.1-0.6h-8.1V30.2L192.6,30.2z M192.6,38.5h8.9c1,0,1.7-0.3,2.3-0.9
		c0.6-0.6,0.8-1.4,0.8-2.3c0-1-0.3-1.8-0.8-2.3c-0.6-0.6-1.3-0.9-2.3-0.9h-8.9V38.5L192.6,38.5z M190.5,40.5v-17h10
		c1.7,0,2.9,0.4,3.8,1.1c0.9,0.7,1.3,1.8,1.3,3.2c0,0.7-0.1,1.3-0.4,1.8c-0.3,0.5-0.6,1-1.1,1.3c0.9,0.5,1.6,1.2,2,1.9
		c0.5,0.8,0.7,1.6,0.7,2.6c0,1.6-0.5,2.8-1.5,3.7c-1,0.9-2.4,1.4-4.2,1.4H190.5L190.5,40.5z M215.6,40.5v-17H229v2h-11.2v5h6.8v2
		h-6.8v6.2h11.9v2H215.6L215.6,40.5z M239.4,31h7.5c1.1,0,1.9-0.2,2.4-0.7c0.5-0.5,0.8-1.2,0.8-2.1c0-0.9-0.3-1.6-0.8-2.1
		c-0.5-0.5-1.3-0.7-2.3-0.7h-7.6V31L239.4,31z M237.3,40.5v-17h9.7c1.7,0,3,0.4,3.9,1.3c0.9,0.8,1.4,2,1.4,3.5
		c0,1.2-0.4,2.3-1.1,3.2c-0.7,0.9-1.7,1.4-2.9,1.6l4.2,7.5h-2.3L246,33h-6.6v7.5H237.3L237.3,40.5z M110.4,40.5v0.8h0.8h13.2h0.8
		v-0.8v-2v-0.8h-0.8h-10.3V23.4v-0.8h-0.8h-2.1h-0.8v0.8V40.5L110.4,40.5z M84.9,40.1l-0.6,1.2h1.3h2.3h0.5l0.2-0.5l2-4.1H99
		l2.1,4.1l0.2,0.5h0.5h2.3h1.3l-0.6-1.2l-8.4-17l-0.2-0.5h-0.5h-1.8h-0.5l-0.2,0.5L84.9,40.1L84.9,40.1z M92.4,33.1l2.4-4.9l2.4,4.9
		H92.4L92.4,33.1z M72.6,40.5v0.8h0.8h2.1h0.8v-0.8v-8.2l7.5-8.3l1.2-1.4h-1.8h-2.7h-0.4l-0.2,0.3l-5.4,6.1l-5.5-6.1l-0.2-0.3h-0.4
		h-2.6H64l1.2,1.4l7.4,8.3V40.5L72.6,40.5z M52.8,41.7c1.4,0,2.6-0.2,3.8-0.7c1.2-0.5,2.2-1.2,3.1-2.1c0.9-0.9,1.6-2,2.1-3.1
		c0.5-1.2,0.7-2.4,0.7-3.8c0-1.4-0.2-2.7-0.7-3.8c-0.5-1.2-1.1-2.2-2.1-3.1c-0.9-0.9-2-1.6-3.1-2.1h0c-1.2-0.5-2.4-0.7-3.8-0.7
		c-1.4,0-2.6,0.2-3.8,0.7c-1.2,0.5-2.2,1.2-3.1,2.1c-0.9,0.9-1.6,2-2.1,3.1c-0.5,1.2-0.7,2.5-0.7,3.8c0,1.4,0.2,2.7,0.7,3.8
		c0.5,1.2,1.1,2.2,2,3.1c0.9,0.9,1.9,1.6,3.1,2.1C50.2,41.5,51.4,41.7,52.8,41.7L52.8,41.7z M52.8,38.1c-0.8,0-1.6-0.1-2.3-0.4
		c-0.7-0.3-1.3-0.7-1.8-1.3c-0.5-0.6-1-1.2-1.2-1.9C47.1,33.7,47,32.9,47,32c0-0.9,0.1-1.7,0.4-2.5c0.3-0.7,0.7-1.4,1.2-2
		c0.5-0.6,1.2-1,1.8-1.3h0c0.7-0.3,1.5-0.4,2.3-0.4c0.9,0,1.6,0.1,2.3,0.4c0.7,0.3,1.3,0.7,1.8,1.3c0.5,0.6,1,1.2,1.2,2
		c0.3,0.7,0.4,1.6,0.4,2.5c0,0.9-0.1,1.7-0.4,2.5c-0.3,0.7-0.7,1.4-1.2,1.9c-0.5,0.6-1.2,1-1.8,1.3C54.4,38,53.6,38.1,52.8,38.1
		L52.8,38.1z M21,40.5v0.8h0.8H24h0.8v-0.8v-6.6h5.3l4,7l0.2,0.4h0.5h2.3h1.4l-0.7-1.2l-3.7-6.6c0.3-0.1,0.5-0.2,0.8-0.4
		c0.6-0.3,1.1-0.7,1.5-1.3l0,0c0.9-1,1.3-2.3,1.3-3.7c0-0.8-0.1-1.6-0.4-2.3c-0.3-0.7-0.7-1.3-1.3-1.8h0c-0.6-0.5-1.2-0.9-2-1.1
		c-0.7-0.2-1.6-0.4-2.5-0.4h-9.7H21v0.8V40.5L21,40.5z M24.8,30.2v-4h6.8c0.4,0,0.8,0,1.1,0.1c0.3,0.1,0.5,0.2,0.7,0.4l0,0
		c0.2,0.2,0.3,0.4,0.4,0.6c0.1,0.2,0.1,0.5,0.1,0.9c0,0.4,0,0.7-0.1,0.9c-0.1,0.2-0.2,0.4-0.4,0.5l0,0c-0.4,0.3-1,0.5-1.9,0.5H24.8
		L24.8,30.2z"/>
</g>
</svg>
